<svg width="32" height="32" viewBox="0 0 32 32" fill="none" xmlns="http://www.w3.org/2000/svg">
  <!-- Central black circle -->
  <circle cx="16" cy="16" r="6" fill="black"/>
  
  <!-- Radiating white rays -->
  <g stroke="white" stroke-width="1.5" stroke-linecap="round">
    <!-- Main rays -->
    <line x1="16" y1="2" x2="16" y2="10"/>
    <line x1="22" y1="6" x2="19" y2="9"/>
    <line x1="26" y1="12" x2="22" y2="12"/>
    <line x1="22" y1="20" x2="19" y2="17"/>
    <line x1="16" y1="24" x2="16" y2="30"/>
    <line x1="10" y1="20" x2="13" y2="17"/>
    <line x1="6" y1="12" x2="10" y2="12"/>
    <line x1="10" y1="6" x2="13" y2="9"/>
    
    <!-- Additional rays for fuller effect -->
    <line x1="20" y1="4" x2="18" y2="8"/>
    <line x1="24" y1="8" x2="21" y2="11"/>
    <line x1="24" y1="16" x2="21" y2="13"/>
    <line x1="20" y1="22" x2="18" y2="18"/>
    <line x1="12" y1="24" x2="14" y2="20"/>
    <line x1="8" y1="20" x2="11" y2="17"/>
    <line x1="8" y1="12" x2="11" y2="15"/>
    <line x1="12" y1="8" x2="14" y2="12"/>
  </g>
</svg>
